<svg version="1.1" xmlns="http://www.w3.org/2000/svg" viewBox="0 0 355.33331298828125 316.66668701171875" width="355.33331298828125" height="316.66668701171875" filter="invert(93%) hue-rotate(180deg)">
  <!-- svg-source:excalidraw -->
  
  <defs>
    <style class="style-fonts">
      @font-face {
        font-family: "Virgil";
        src: url("https://excalidraw.com/Virgil.woff2");
      }
      @font-face {
        font-family: "Cascadia";
        src: url("https://excalidraw.com/Cascadia.woff2");
      }
    </style>
    
  </defs>
  <g stroke-linecap="round" transform="translate(10 10) rotate(0 77 55)"><path d="M27.5 0 M27.5 0 C51.46 0.03, 73.2 1.29, 126.5 0 M27.5 0 C55.28 -1.26, 84.02 -0.99, 126.5 0 M126.5 0 C146.71 0.72, 154.94 7.37, 154 27.5 M126.5 0 C144.66 1.35, 155.04 8.67, 154 27.5 M154 27.5 C153.07 47.97, 155.34 71.22, 154 82.5 M154 27.5 C153.95 47.39, 154.95 69.53, 154 82.5 M154 82.5 C155.33 99.7, 144.92 111.46, 126.5 110 M154 82.5 C152.51 98.92, 145.38 109.62, 126.5 110 M126.5 110 C93.03 112.23, 58.87 108.93, 27.5 110 M126.5 110 C98.77 109.61, 68.9 110.88, 27.5 110 M27.5 110 C7.88 111.81, -1.53 101.54, 0 82.5 M27.5 110 C8.34 110.71, 0.32 99.72, 0 82.5 M0 82.5 C-0.26 63.88, -0.03 42.94, 0 27.5 M0 82.5 C0.95 69.15, -0.72 55.51, 0 27.5 M0 27.5 C-1.32 10.3, 8.81 0.37, 27.5 0 M0 27.5 C-0.43 8.71, 9.74 -1.39, 27.5 0" stroke="#1e1e1e" stroke-width="1" fill="none"></path></g><g stroke-linecap="round" transform="translate(206 200) rotate(0 69.66665649414062 53.333343505859375)"><path d="M26.67 0 M26.67 0 C50.79 0.14, 79.19 0.94, 112.67 0 M26.67 0 C61.56 -0.5, 96.2 -0.63, 112.67 0 M112.67 0 C131.15 -0.72, 139.95 9.17, 139.33 26.67 M112.67 0 C129.33 1.5, 139.69 9.76, 139.33 26.67 M139.33 26.67 C140.34 40.93, 139.26 58.69, 139.33 80 M139.33 26.67 C138.19 46.39, 139.72 67.25, 139.33 80 M139.33 80 C139.7 97.4, 130.05 107.17, 112.67 106.67 M139.33 80 C137.94 99.45, 128.29 107.67, 112.67 106.67 M112.67 106.67 C94.49 108.04, 77.62 107.27, 26.67 106.67 M112.67 106.67 C88.65 107.97, 65.57 106.53, 26.67 106.67 M26.67 106.67 C7.29 107.34, -1.45 97.86, 0 80 M26.67 106.67 C11.06 108.72, -0.52 96.66, 0 80 M0 80 C-0.28 63.86, 1.26 46.01, 0 26.67 M0 80 C-0.07 67.35, 0.34 54.54, 0 26.67 M0 26.67 C1.72 9.74, 8.69 -0.66, 26.67 0 M0 26.67 C0.51 9.03, 9.91 -2.1, 26.67 0" stroke="#1e1e1e" stroke-width="1" fill="none"></path></g><g stroke-linecap="round"><g transform="translate(163.33331298828125 60.666656494140625) rotate(0 54.13214260116223 67.81419091174843)"><path d="M-1.09 -1.08 C17.32 21.37, 90.81 112.4, 109.35 135.23 M0.54 0.97 C18.9 23.57, 90.2 114.56, 108.42 136.71" stroke="#1e1e1e" stroke-width="1" fill="none"></path></g><g transform="translate(163.33331298828125 60.666656494140625) rotate(0 54.13214260116223 67.81419091174843)"><path d="M80.99 121.14 C87.97 125.92, 94.38 128.37, 107.89 137.74 M82.74 120.18 C91.98 127.44, 102.12 133.27, 109.36 137.6" stroke="#1e1e1e" stroke-width="1" fill="none"></path></g><g transform="translate(163.33331298828125 60.666656494140625) rotate(0 54.13214260116223 67.81419091174843)"><path d="M97.01 108.32 C100.74 115.59, 103.85 120.69, 107.89 137.74 M98.76 107.36 C101.64 119.74, 105.49 130.6, 109.36 137.6" stroke="#1e1e1e" stroke-width="1" fill="none"></path></g></g><mask></mask><g transform="translate(46 56.666656494140625) rotate(0 24.58997344970703 12.5)"><text x="0" y="0" font-family="Virgil, Segoe UI Emoji" font-size="20px" fill="#1e1e1e" text-anchor="start" style="white-space: pre;" direction="ltr" dominant-baseline="text-before-edge">Test</text></g><g transform="translate(242 249.33331298828125) rotate(0 38.38995361328125 12.5)"><text x="0" y="0" font-family="Virgil, Segoe UI Emoji" font-size="20px" fill="#1e1e1e" text-anchor="start" style="white-space: pre;" direction="ltr" dominant-baseline="text-before-edge">Example</text></g></svg>